# xmcd
#
# Track frame offsets: 
#        150
#        18440
#        47400
#        84125
#        100890
#        130432
#        160832
#        194340
#        202415
#        226160
#        247097
#        263637
#        293590
#        324050
#
# Disc length: 4739 seconds
#
# Revision: 2
# Processed by: cddbd v1.5.2PL0 Copyright (c) Steve Scherf et al.
# Submitted via: ExactAudioCopyFreeDBPlugin 1.0
#
DISCID=b612810e
DTITLE=Chris Farlowe - Hungary For The Blues
DYEAR=2005
DGENRE=Blues
TTITLE0=I Don't Want To Sing The Blues No More
TTITLE1=Lonesome Road
TTITLE2=Stormy Monday
TTITLE3=All Or Nothing
TTITLE4=Tough On Me, Tough On You
TTITLE5=Shaky Ground
TTITLE6=The Guitar Don't Lie
TTITLE7=I Think It's Gonna Rain Today
TTITLE8=Easy As That
TTITLE9=Out Of Time
TTITLE10=Who's Been Sleeping In My Bed
TTITLE11=Miss You Fever
TTITLE12=Handbags And Gladrags
TTITLE13=Rock And Roll Soldiers
EXTD=
EXTT0=
EXTT1=
EXTT2=
EXTT3=
EXTT4=
EXTT5=
EXTT6=
EXTT7=
EXTT8=
EXTT9=
EXTT10=
EXTT11=
EXTT12=
EXTT13=
PLAYORDER=
